<svg width="78" height="92" viewBox="0 0 78 92" fill="none" xmlns="http://www.w3.org/2000/svg">
<path d="M77.8465 62.585C77.1078 57.2236 74.0578 51.9576 69.7688 48.6693C69.5305 48.5025 69.316 48.3596 69.1016 48.1928C68.0293 47.4065 66.957 46.7393 65.8371 46.1436C64.741 45.7861 63.6926 45.4049 62.668 44.8569C63.0731 44.5471 67.8863 41.235 69.3399 39.3049C69.5781 38.9713 69.5781 38.9713 69.8164 38.6615C72.7711 34.5869 74.034 29.7022 73.9625 24.6983C73.748 18.3838 71.4605 12.117 66.8141 7.70881C66.6234 7.54201 66.4328 7.37521 66.2422 7.20841C58.1883 -0.0591635 58.1883 -0.0591666 37.0051 0.0123178C36.052 0.0123178 35.1227 0.0123178 34.1695 0.0123178C32.8113 0.0123178 32.8113 0.0123178 29.9043 0.0123178C26.2824 0.0123178 26.2824 0.0123193 22.7559 0.0361474C15.0117 0.0361474 7.50586 0.059977 0 0.059977V91.3217C13.0578 91.3217 13.0578 91.3217 25.8297 91.3455C29.6422 91.3455 33.4547 91.3455 37.2672 91.3455C38.5777 91.3455 39.8883 91.3455 41.175 91.3455C42.557 91.3455 43.9629 91.3455 45.3449 91.3455H46.8938C47.6086 91.3455 48.3234 91.3455 49.0383 91.3455H49.6816C50.2535 91.3455 50.8016 91.3455 51.3734 91.3455C58.498 91.0596 66.1945 88.367 71.1508 83.1248C71.4367 82.8151 71.4367 82.815 71.6988 82.5053C72.0801 82.0764 72.4375 81.6475 72.8187 81.2186C77.1793 75.7619 78.3945 69.3998 77.8465 62.585ZM17.6328 15.31C24.6383 15.2861 24.6383 15.2861 28.0934 15.2861C29.9758 15.2861 31.8344 15.2861 33.7168 15.2861C35.1941 15.2861 36.6715 15.2861 38.1727 15.2861C38.959 15.2861 39.7453 15.2861 40.5316 15.2861C41.4133 15.2861 42.2949 15.2861 43.1527 15.2861C43.534 15.2861 43.534 15.2861 43.9391 15.2861C47.5848 15.2861 50.7062 16.5252 53.3512 19.0748C54.8047 20.6236 55.734 22.1486 56.282 23.8166C56.3297 23.8404 56.3773 23.8643 56.4727 23.9119C56.6156 24.46 56.6156 24.46 56.7348 25.1272C56.7824 25.3416 56.8063 25.5561 56.8539 25.7944C56.8777 25.9611 56.9016 26.1279 56.9492 26.3186H56.8539C56.9969 27.3432 57.0445 28.4154 57.0207 29.5592C56.9254 32.3233 55.9961 34.5869 54.3281 36.8029C54.209 36.9697 54.066 37.1604 53.9469 37.3272C52.0883 39.6623 48.9191 41.4256 45.9406 41.7592C45.6547 41.783 45.3449 41.783 45.0352 41.8068C44.5109 40.4963 44.1297 39.2334 43.8438 37.8752C43.7961 37.6846 43.7484 37.494 43.7246 37.3033C43.6293 36.8983 43.534 36.4932 43.4625 36.1119C43.2242 35.0635 42.9859 34.0389 42.7477 32.9904C42.7 32.776 42.6523 32.5854 42.6047 32.3709C42.1996 30.6553 41.8184 28.9158 41.3895 27.2002C41.3418 26.9619 41.2703 26.7236 41.2227 26.4854C41.175 26.2709 41.1273 26.0565 41.0559 25.842C41.0082 25.6752 40.9606 25.4846 40.9367 25.294C40.7938 24.8174 40.7937 24.8174 40.3172 24.3885C39.5785 24.3408 39.5785 24.3408 38.7445 24.3647C38.3156 24.3647 38.3156 24.3647 37.8867 24.3647C37.5531 24.3647 37.5531 24.3647 37.2195 24.3885C36.5285 26.8904 35.8613 29.3924 35.1941 31.9182C35.1227 32.1565 35.075 32.3709 35.0035 32.633C33.9551 36.5647 32.9305 40.4963 31.882 44.4279C31.7867 44.8092 31.6676 45.2143 31.5723 45.5955C31.5246 45.7862 31.477 45.9529 31.4293 46.1436C30.9766 47.8592 30.5238 49.5987 30.0473 51.3143C29.4277 50.6947 29.3086 50.1467 29.0465 49.3365C28.9512 49.0268 28.832 48.717 28.7367 48.4072C28.5699 47.9307 28.427 47.4303 28.2602 46.9537C28.1172 46.4772 27.9504 46.0244 27.7836 45.5479C27.6883 45.2619 27.593 44.9998 27.4977 44.7139C27.1641 43.8799 26.7828 43.2127 26.2348 42.4979C23.566 41.4256 20.516 41.8783 17.6566 41.783V15.31H17.6328ZM56.4012 72.8073C55.2812 73.7842 54.0422 74.499 52.7316 75.1901C52.5887 75.2615 52.4457 75.333 52.3027 75.4283C48.6332 77.2631 44.3441 76.8819 40.3648 76.858C39.793 76.858 39.1973 76.858 38.6254 76.858C36.4809 76.858 34.3363 76.858 32.1918 76.8342C27.3785 76.8104 22.5891 76.8104 17.6328 76.7865V45.81C19.134 45.667 20.5637 45.5479 22.0648 45.5479C22.2316 45.5479 22.3984 45.5479 22.5891 45.5479C22.9941 45.5479 23.423 45.5479 23.8281 45.5717C23.8758 45.6908 23.8996 45.81 23.9473 45.9529C24.3762 47.2635 24.7813 48.5979 25.2102 49.9084C25.3531 50.4088 25.5199 50.8854 25.6867 51.3858C25.9012 52.1006 26.1395 52.7916 26.3539 53.5065C26.4254 53.7209 26.4969 53.9354 26.5684 54.1737C26.7828 54.7932 26.9734 55.4365 27.1879 56.0799C27.2594 56.3182 27.3547 56.5565 27.4262 56.7947C27.4977 57.033 27.593 57.2713 27.6645 57.5096C27.7359 57.724 27.8074 57.9385 27.8789 58.153C28.1172 58.7487 28.1172 58.7486 28.832 59.1537C29.3324 59.249 29.3324 59.249 29.8805 59.249C30.0711 59.249 30.2379 59.2729 30.4285 59.2729C31.2863 59.0584 31.6199 58.6295 32.168 57.9385C32.4539 57.2713 32.6445 56.5565 32.8113 55.8416C32.9066 55.5319 32.9066 55.5318 32.9781 55.2221C33.1687 54.5311 33.3355 53.8401 33.5023 53.1729C33.6215 52.6963 33.7406 52.2197 33.8836 51.7432C34.2172 50.4803 34.527 49.2174 34.8605 47.9545C35.1941 46.6678 35.5277 45.4049 35.8613 44.142C36.2188 42.8076 36.5523 41.4733 36.9098 40.1151C36.9336 39.9959 36.9574 39.9244 36.9813 39.8529C37.0289 39.6147 37.1004 39.4002 37.148 39.1619C37.6246 37.3033 38.1012 35.4686 38.6254 33.6338H39.102C39.2688 34.2772 39.4117 34.9444 39.5785 35.5877C39.65 35.8498 39.65 35.8498 39.7215 36.1358C39.8406 36.6123 39.9359 37.0651 40.0074 37.5416C40.1027 37.9229 40.1742 38.3041 40.2695 38.6854C40.4125 39.3049 40.5555 39.9244 40.6984 40.544C40.7461 40.7346 40.7699 40.9252 40.8176 41.1158C41.1512 42.5217 41.5324 44.0705 42.7 44.9998C44.0582 45.524 45.202 45.667 46.6555 45.667C49.9914 45.7385 52.6125 46.6678 55.3289 48.6693C55.7102 48.9315 55.7102 48.9315 56.0914 49.2174C59.5227 52.5057 61.2145 56.6279 61.3574 61.3459C61.2383 65.8256 59.5465 69.6619 56.4012 72.8073Z" fill="#003D9F"/>
</svg>
