<svg width="35" height="47" viewBox="0 0 35 47" fill="none" xmlns="http://www.w3.org/2000/svg">
<path d="M34.1376 31.549C33.8137 28.8463 32.4762 26.1918 30.5953 24.5341C30.4908 24.4501 30.3968 24.378 30.3027 24.2939C29.8325 23.8975 29.3623 23.5612 28.8712 23.2609C28.3905 23.0807 27.9308 22.8885 27.4814 22.6123C27.6591 22.4561 29.7698 20.7865 30.4072 19.8135C30.5117 19.6454 30.5117 19.6454 30.6162 19.4892C31.9119 17.4352 32.4657 14.9728 32.4344 12.4504C32.3403 9.26725 31.3372 6.10816 29.2996 3.886C29.216 3.80191 29.1324 3.71783 29.0488 3.63375C25.517 -0.0298242 25.517 -0.0298258 16.2276 0.00620939C15.8097 0.00620939 15.4021 0.00620939 14.9842 0.00620939C14.3886 0.00620939 14.3886 0.00620939 13.1138 0.00620939C11.5255 0.00620939 11.5255 0.00621012 9.979 0.0182218C6.58301 0.0182218 3.2915 0.0302343 0 0.0302343V46.0351C5.72617 46.0351 5.72617 46.0351 11.327 46.0471C12.9988 46.0471 14.6707 46.0471 16.3426 46.0471C16.9173 46.0471 17.492 46.0471 18.0563 46.0471C18.6623 46.0471 19.2788 46.0471 19.8849 46.0471H20.5641C20.8775 46.0471 21.191 46.0471 21.5045 46.0471H21.7866C22.0374 46.0471 22.2777 46.0471 22.5285 46.0471C25.6528 45.903 29.0279 44.5457 31.2014 41.9031C31.3268 41.7469 31.3268 41.7469 31.4417 41.5908C31.6089 41.3746 31.7656 41.1584 31.9328 40.9422C33.845 38.1915 34.3779 34.9843 34.1376 31.549ZM7.73242 7.71773C10.8045 7.70572 10.8045 7.70572 12.3196 7.70572C13.1451 7.70572 13.9602 7.70572 14.7856 7.70572C15.4335 7.70572 16.0813 7.70572 16.7396 7.70572C17.0845 7.70572 17.4293 7.70572 17.7741 7.70572C18.1607 7.70572 18.5474 7.70572 18.9235 7.70572C19.0907 7.70572 19.0907 7.70572 19.2684 7.70572C20.8671 7.70572 22.2359 8.33033 23.3958 9.61558C24.0332 10.3963 24.4407 11.1651 24.6811 12.0059C24.702 12.0179 24.7229 12.0299 24.7647 12.054C24.8273 12.3302 24.8273 12.3302 24.8796 12.6666C24.9005 12.7747 24.9109 12.8828 24.9318 13.0029C24.9423 13.087 24.9527 13.1711 24.9736 13.2671H24.9318C24.9945 13.7837 25.0154 14.3242 25.005 14.9007C24.9632 16.2941 24.5557 17.4352 23.8242 18.5523C23.772 18.6364 23.7093 18.7325 23.657 18.8166C22.842 19.9937 21.4522 20.8826 20.1461 21.0507C20.0207 21.0628 19.8849 21.0628 19.749 21.0748C19.5191 20.4141 19.352 19.7775 19.2266 19.0928C19.2057 18.9967 19.1848 18.9006 19.1743 18.8046C19.1325 18.6003 19.0907 18.3962 19.0594 18.204C18.9549 17.6754 18.8504 17.1589 18.7459 16.6304C18.725 16.5223 18.7041 16.4262 18.6832 16.3181C18.5056 15.4533 18.3384 14.5764 18.1503 13.7116C18.1294 13.5915 18.098 13.4713 18.0772 13.3512C18.0563 13.2431 18.0354 13.135 18.004 13.0269C17.9831 12.9428 17.9622 12.8467 17.9518 12.7506C17.8891 12.5104 17.8891 12.5104 17.6801 12.2942C17.3561 12.2702 17.3562 12.2702 16.9904 12.2822C16.8023 12.2822 16.8023 12.2822 16.6143 12.2822C16.468 12.2822 16.468 12.2822 16.3217 12.2942C16.0187 13.5554 15.7261 14.8167 15.4335 16.0899C15.4022 16.21 15.3812 16.3181 15.3499 16.4503C14.8901 18.4322 14.4408 20.4141 13.9811 22.3961C13.9393 22.5882 13.887 22.7924 13.8452 22.9846C13.8243 23.0807 13.8034 23.1648 13.7825 23.2609C13.584 24.1257 13.3854 25.0026 13.1765 25.8674C12.9048 25.5551 12.8525 25.2789 12.7376 24.8705C12.6958 24.7143 12.6436 24.5582 12.6018 24.402C12.5286 24.1618 12.4659 23.9095 12.3928 23.6693C12.3301 23.4291 12.2569 23.2008 12.1838 22.9606C12.142 22.8165 12.1002 22.6843 12.0584 22.5402C11.9121 22.1198 11.7449 21.7835 11.5046 21.4231C10.3343 20.8826 8.99678 21.1108 7.74287 21.0628V7.71773H7.73242ZM24.7333 36.702C24.2422 37.1945 23.6988 37.5548 23.1241 37.9032C23.0614 37.9392 22.9987 37.9753 22.936 38.0233C21.3269 38.9482 19.446 38.756 17.701 38.744C17.4502 38.744 17.189 38.744 16.9382 38.744C15.9978 38.744 15.0573 38.744 14.1169 38.732C12.0062 38.72 9.90586 38.72 7.73242 38.708V23.0927C8.39072 23.0207 9.01768 22.9606 9.67598 22.9606C9.74912 22.9606 9.82227 22.9606 9.90586 22.9606C10.0835 22.9606 10.2716 22.9606 10.4492 22.9726C10.4701 23.0327 10.4806 23.0927 10.5015 23.1648C10.6896 23.8255 10.8672 24.4981 11.0553 25.1587C11.118 25.411 11.1911 25.6512 11.2643 25.9035C11.3583 26.2638 11.4628 26.6122 11.5568 26.9725C11.5882 27.0806 11.6195 27.1887 11.6509 27.3088C11.7449 27.6212 11.8285 27.9455 11.9226 28.2698C11.9539 28.3899 11.9957 28.51 12.0271 28.6301C12.0584 28.7503 12.1002 28.8704 12.1315 28.9905C12.1629 29.0986 12.1942 29.2067 12.2256 29.3148C12.3301 29.6151 12.3301 29.6151 12.6436 29.8193C12.863 29.8673 12.863 29.8673 13.1033 29.8673C13.1869 29.8673 13.2601 29.8794 13.3437 29.8794C13.7198 29.7712 13.8661 29.555 14.1064 29.2067C14.2318 28.8704 14.3154 28.51 14.3886 28.1497C14.4304 27.9935 14.4304 27.9935 14.4617 27.8374C14.5453 27.489 14.6185 27.1407 14.6916 26.8044C14.7438 26.5641 14.7961 26.3239 14.8588 26.0837C15.0051 25.447 15.1409 24.8104 15.2872 24.1738C15.4335 23.5252 15.5798 22.8885 15.7261 22.2519C15.8828 21.5793 16.0291 20.9066 16.1858 20.2219C16.1963 20.1619 16.2067 20.1258 16.2172 20.0898C16.2381 19.9697 16.2694 19.8616 16.2903 19.7415C16.4993 18.8046 16.7083 17.8796 16.9382 16.9547H17.1472C17.2203 17.2791 17.283 17.6154 17.3562 17.9397C17.3875 18.0718 17.3875 18.0718 17.4188 18.216C17.4711 18.4562 17.5129 18.6844 17.5442 18.9247C17.586 19.1169 17.6174 19.309 17.6592 19.5012C17.7219 19.8135 17.7846 20.1258 17.8473 20.4381C17.8682 20.5342 17.8786 20.6303 17.8995 20.7264C18.0458 21.4351 18.213 22.2159 18.725 22.6843C19.3206 22.9486 19.8222 23.0207 20.4596 23.0207C21.9225 23.0567 23.0719 23.5252 24.2631 24.5341C24.4303 24.6663 24.4303 24.6663 24.5975 24.8104C26.1021 26.468 26.844 28.5461 26.9067 30.9244C26.8545 33.1826 26.1126 35.1165 24.7333 36.702Z" fill="#003D9F"/>
</svg>
